<mxfile host="app.diagrams.net" modified="2023-10-23T10:36:43.080Z" agent="Mozilla/5.0 (Windows NT 10.0; Win64; x64) AppleWebKit/537.36 (KHTML, like Gecko) Chrome/118.0.0.0 Safari/537.36 Edg/118.0.2088.46" version="22.0.6" etag="n29Btkg1zIyDOv38rE8w" type="github">
  <diagram name="Trang-1" id="z79tCOuKcGcn9fgJ1ytw">
    <mxGraphModel>
      <root>
        <mxCell id="0" />
        <mxCell id="1" parent="0" />
      </root>
    </mxGraphModel>
  </diagram>
</mxfile>
